<svg width="227" height="209" viewBox="0 0 227 209" fill="none" xmlns="http://www.w3.org/2000/svg">
<ellipse cx="21.3336" cy="28.5994" rx="21.3336" ry="28.5994" transform="matrix(-0.952075 -0.305866 -0.305866 0.952075 217.117 62.0504)" fill="#FB8500"/>
<ellipse cx="81.6022" cy="38.191" rx="23.8686" ry="33.0944" transform="rotate(-14.1691 81.6022 38.191)" fill="#FB8500"/>
<ellipse cx="23.8686" cy="33.0944" rx="23.8686" ry="33.0944" transform="matrix(-0.969577 -0.244785 -0.244785 0.969577 176.487 11.6854)" fill="#FB8500"/>
<ellipse cx="40.0587" cy="83.7035" rx="21.3336" ry="28.5994" transform="rotate(-17.8103 40.0587 83.7035)" fill="#FB8500"/>
<path d="M86.7182 84.9846C99.2849 66.6206 126.533 66.9623 138.804 85.5247C151.201 104.277 162.559 120.93 174.354 137.712C191.182 161.658 169.184 194.034 140.881 186.582L121.039 181.358C115.893 180.003 110.485 179.995 105.336 181.336L82.6461 187.243C54.6121 194.542 32.7417 162.8 49.3411 139.06C60.972 122.425 72.8743 105.215 86.7182 84.9846Z" fill="#582F0E"/>
</svg>
